# xmcd
#
# Track frame offsets:
# 150
# 27903
# 43866
# 72741
# 92777
# 134596
#
# Disc length: 2143 seconds
#
#
# Revision: 0
# Processed by: cddbd v1.5.2PL0 Copyright (c) Steve Scherf et al.
# Submitted via: FreeRIP 2.951 
#
DISCID=59085d06
DTITLE=Alexis Korner - Alexis Korner and Friends
DYEAR=1982
DGENRE=Blues
TTITLE0=Whole mess of Blues
TTITLE1=Linning Track
TTITLE2=Robert Johnson
TTITLE3=Hey Pretty Mama
TTITLE4=Hi-Heel Sneakers
TTITLE5=Stormy Monday Blues
EXTD=
EXTT0=
EXTT1=
EXTT2=
EXTT3=
EXTT4=
EXTT5=
PLAYORDER=
